Coordinates
version=1
nRows=32
nColumns=18
inDegrees=yes

Units are S.I. units (second, meters, Newtons, ...)
If the header above contains a line with 'inDegrees', this indicates whether rotational values are in degrees (yes) or radians (no).

endheader
time	ground_thorax_rot_x	ground_thorax_rot_y	ground_thorax_rot_z	ground_thorax_tx	ground_thorax_ty	ground_thorax_tz	clav_prot	clav_elev	scapula_abduction	scapula_elevation	scapula_upward_rot	scapula_winging	plane_elv	shoulder_elv	axial_rot	elbow_flexion	pro_sup
      4.10000000	     -3.18769024	     -1.57460932	     -7.15756749	     -0.00516787	      0.00658322	     -0.00727883	    -43.04445918	      6.50660191	     -8.11244153	     -4.47700177	     68.84285428	    -11.94046552	     40.75626224	     98.64431808	    -25.63982077	      0.00000000	     34.32000000
      4.11000000	     -3.15587102	     -1.58984882	     -7.17520181	     -0.00525544	      0.00662169	     -0.00730387	    -43.03602662	      6.52764446	     -8.13436867	     -4.46341603	     68.80487116	    -11.94479926	     40.73144185	     98.60773831	    -25.64400073	      0.00000000	     34.32000000
      4.12000000	     -3.12909000	     -1.62749852	     -7.19402746	     -0.00528936	      0.00654819	     -0.00726658	    -43.02783372	      6.55889774	     -8.16731155	     -4.44324667	     68.75694580	    -11.95327497	     40.70681516	     98.56216535	    -25.65153002	      0.00000000	     34.32000000
      4.13000000	     -3.10392552	     -1.65259617	     -7.20587583	     -0.00533165	      0.00643023	     -0.00723836	    -43.01835215	      6.57353464	     -8.18387864	     -4.43387222	     68.72137363	    -11.95468038	     40.70410031	     98.52620411	    -25.65891558	      0.00000000	     34.32000000
      4.14000000	     -3.08559527	     -1.67308580	     -7.20899211	     -0.00535192	      0.00633026	     -0.00723053	    -43.01213231	      6.57677582	     -8.19263155	     -4.43197331	     68.69858316	    -11.95327953	     40.71285999	     98.50025429	    -25.66579912	      0.00000000	     34.32000000
      4.15000000	     -3.07321222	     -1.70293469	     -7.21597247	     -0.00537717	      0.00626512	     -0.00728075	    -43.00547829	      6.57734913	     -8.20010723	     -4.43189489	     68.67554587	    -11.95077656	     40.73759257	     98.47143799	    -25.67508034	      0.00000000	     34.32000000
      4.16000000	     -3.11069957	     -1.86509233	     -7.21667763	     -0.00527805	      0.00625040	     -0.00716982	    -43.00244200	      6.57917261	     -8.23438553	     -4.43214320	     68.62630099	    -11.95209066	     40.88532315	     98.39731821	    -25.71858407	      0.00000000	     34.32000000
      4.17000000	     -3.11045100	     -1.86487568	     -7.21689947	     -0.00521286	      0.00621247	     -0.00720946	    -43.00218738	      6.57915708	     -8.23416352	     -4.43214340	     68.62605303	    -11.95195027	     40.88599020	     98.39699423	    -25.71871150	      0.00000000	     34.32000000
      4.18000000	     -3.08980464	     -1.85684039	     -7.22213213	     -0.00518981	      0.00615774	     -0.00723686	    -42.99351642	      6.57225379	     -8.22980081	     -4.43670586	     68.61130641	    -11.94528642	     40.90258356	     98.38140991	    -25.72351202	      0.00000000	     34.32000000
      4.19000000	     -3.06092261	     -1.82572961	     -7.19377512	     -0.00515479	      0.00617057	     -0.00720631	    -42.98912699	      6.53787628	     -8.21675056	     -4.45992224	     68.60682599	    -11.93111237	     40.93909944	     98.37242555	    -25.73383815	      0.00000000	     34.32000000
      4.20000000	     -3.06015291	     -1.82457214	     -7.19406287	     -0.00507366	      0.00614367	     -0.00712449	    -42.98859871	      6.53770432	     -8.21636701	     -4.46002281	     68.60616461	    -11.93078023	     40.93943280	     98.37170222	    -25.73394793	      0.00000000	     34.32000000
      4.21000000	     -3.05930885	     -1.82271225	     -7.19559227	     -0.00504682	      0.00618230	     -0.00710722	    -42.98757632	      6.53776404	     -8.21554788	     -4.45994223	     68.60511960	    -11.93026162	     40.94047828	     98.37035794	    -25.73422327	      0.00000000	     34.32000000
      4.22000000	     -3.05218126	     -1.80197270	     -7.21256088	     -0.00514097	      0.00618247	     -0.00716306	    -42.97515672	      6.53620012	     -8.20432098	     -4.46049268	     68.59324789	    -11.92313209	     40.95893694	     98.35297770	    -25.73868887	      0.00000000	     34.32000000
      4.23000000	     -3.05053623	     -1.80079820	     -7.21368212	     -0.00512472	      0.00614075	     -0.00711301	    -42.97409460	      6.53593709	     -8.20376216	     -4.46064623	     68.59167686	    -11.92250534	     40.95982852	     98.35124108	    -25.73895140	      0.00000000	     34.32000000
      4.24000000	     -3.02534994	     -1.78952587	     -7.23223983	     -0.00521070	      0.00615709	     -0.00712731	    -42.95885037	      6.53346961	     -8.19738271	     -4.46202403	     68.56749554	    -11.91403952	     40.97250598	     98.32467171	    -25.74298506	      0.00000000	     34.32000000
      4.25000000	     -3.01296360	     -1.78901655	     -7.23465899	     -0.00524948	      0.00617443	     -0.00712708	    -42.95107193	      6.52835175	     -8.19537637	     -4.46545297	     68.55221766	    -11.90853304	     40.98390517	     98.30490297	    -25.74752934	      0.00000000	     34.32000000
      4.26000000	     -3.00567284	     -1.79253499	     -7.24120544	     -0.00527748	      0.00615841	     -0.00716053	    -42.94197671	      6.52393141	     -8.19236376	     -4.46835004	     68.53574971	    -11.90256266	     41.00315610	     98.27985229	    -25.75365755	      0.00000000	     34.32000000
      4.27000000	     -3.00295399	     -1.80043120	     -7.25459663	     -0.00531132	      0.00613503	     -0.00719721	    -42.93076881	      6.52082972	     -8.18776292	     -4.47025330	     68.51740850	    -11.89592042	     41.03076695	     98.24923071	    -25.76091362	      0.00000000	     34.32000000
      4.28000000	     -3.08109016	     -1.98856255	     -7.19103288	     -0.00523684	      0.00624586	     -0.00704144	    -42.91456620	      6.49546637	     -8.18382164	     -4.48756784	     68.48014706	    -11.87962464	     41.22314550	     98.04050874	    -25.82516696	      0.00000000	     34.32000000
      4.29000000	     -3.07035309	     -1.97704642	     -7.21793647	     -0.00525226	      0.00625325	     -0.00709258	    -42.89987610	      6.50026111	     -8.17540227	     -4.48381739	     68.46224483	    -11.87369089	     41.23616756	     98.01789363	    -25.82865981	      0.00000000	     34.32000000
      4.30000000	     -3.05673341	     -1.96542278	     -7.25379056	     -0.00523916	      0.00622266	     -0.00713368	    -42.88003571	      6.50710245	     -8.16566916	     -4.47857457	     68.43610839	    -11.86589684	     41.25554411	     97.98655953	    -25.83309392	      0.00000000	     34.32000000
      4.31000000	     -3.04834265	     -1.95289708	     -7.29394298	     -0.00521609	      0.00617296	     -0.00716212	    -42.85752386	      6.51543265	     -8.15247985	     -4.47212590	     68.40938558	    -11.85711281	     41.28221438	     97.95422711	    -25.83755310	      0.00000000	     34.32000000
      4.32000000	     -3.04603890	     -1.94265237	     -7.32997515	     -0.00522102	      0.00615274	     -0.00716957	    -42.83682430	      6.52411667	     -8.13840951	     -4.46539281	     68.38764118	    -11.84926558	     41.30848545	     97.92727807	    -25.84103733	      0.00000000	     34.32000000
      4.33000000	     -3.04941332	     -1.94322160	     -7.35136485	     -0.00526663	      0.00615487	     -0.00715616	    -42.82175633	      6.53084156	     -8.12854003	     -4.46022958	     68.37147778	    -11.84370899	     41.32915992	     97.90671125	    -25.84379516	      0.00000000	     34.32000000
      4.34000000	     -3.04952417	     -1.94336633	     -7.35171043	     -0.00525214	      0.00617326	     -0.00714774	    -42.82142528	      6.53103822	     -8.12839772	     -4.46008448	     68.37104528	    -11.84360767	     41.32953729	     97.90619746	    -25.84386982	      0.00000000	     34.32000000
      4.35000000	     -3.04111106	     -1.94818038	     -7.36949751	     -0.00521629	      0.00617631	     -0.00717227	    -42.80385148	      6.53806313	     -8.12439831	     -4.45496285	     68.34235399	    -11.83731224	     41.34605433	     97.87618674	    -25.84804758	      0.00000000	     34.32000000
      4.36000000	     -3.01288541	     -1.94278028	     -7.38098460	     -0.00509654	      0.00609523	     -0.00715552	    -42.78642323	      6.53607481	     -8.12188481	     -4.45610293	     68.30894334	    -11.82821068	     41.35664968	     97.84475265	    -25.85123928	      0.00000000	     34.32000000
      4.37000000	     -2.95589219	     -1.93359733	     -7.38060415	     -0.00503436	      0.00592456	     -0.00711979	    -42.76737845	      6.51754808	     -8.12123762	     -4.46876524	     68.26403297	    -11.81302730	     41.36586499	     97.80525097	    -25.85435929	      0.00000000	     34.32000000
      4.38000000	     -3.01531099	     -1.96738213	     -7.24567350	     -0.00507125	      0.00614439	     -0.00707731	    -42.72961071	      6.29462496	     -8.10701099	     -4.62218307	     68.12651755	    -11.72033009	     41.57030199	     97.70569303	    -25.85908554	      0.00000000	     34.32000000
      4.39000000	     -3.02959632	     -1.96351629	     -7.26671942	     -0.00518329	      0.00616827	     -0.00709930	    -42.72202390	      6.30003810	     -8.10062000	     -4.61811169	     68.12088765	    -11.71815504	     41.58036062	     97.70036127	    -25.85834063	      0.00000000	     34.32000000
      4.40000000	     -3.09030571	     -1.96586487	     -7.30933397	     -0.00524579	      0.00630649	     -0.00717159	    -42.71317139	      6.33002264	     -8.08797513	     -4.59676540	     68.12913815	    -11.72322763	     41.60026867	     97.70349578	    -25.85699037	      0.00000000	     34.32000000
      4.41000000	     -3.20233754	     -2.11406742	     -7.37213922	     -0.00517653	      0.00617174	     -0.00714086	    -42.64547718	      6.49106271	     -8.08877070	     -4.48472873	     68.04484039	    -11.74437505	     41.57893722	     97.64909719	    -25.83664720	      0.00000000	     34.32000000
